<svg width="68" height="68" viewBox="0 0 68 68" fill="none" xmlns="http://www.w3.org/2000/svg">
<g clip-path="url(#clip0_302_237)">
<path d="M58.3246 0.888281C58.2072 0.890854 58.0735 0.944276 57.9525 1.1039C57.7808 1.34332 35.4187 32.3909 30.3276 41.5599C30.449 41.5995 30.5733 41.64 30.6987 41.6847C31.4844 41.9648 32.3528 42.3477 33.2796 42.869C34.3818 43.489 35.5673 44.305 36.7974 45.3744C42.3876 36.3079 58.569 1.82554 58.6946 1.55923C58.8107 1.261 58.6963 1.04662 58.5775 0.963804C58.57 0.958629 58.562 0.953537 58.5534 0.94848C58.4968 0.915289 58.416 0.886281 58.3246 0.888281V0.888281ZM29.7125 42.7355C29.6264 42.9151 29.5532 43.079 29.4936 43.2247C27.6017 47.8531 24.7654 53.4096 23.9805 55.5283C25.4849 55.761 26.7919 56.59 27.6526 57.7666C29.1181 56.0548 32.58 50.8943 35.6854 47.0173C35.8037 46.8695 35.9356 46.6911 36.0783 46.4853C34.962 45.4983 33.8908 44.7402 32.8976 44.1594C31.9365 43.5975 31.0482 43.2008 30.2587 42.9193C30.07 42.8521 29.8887 42.7902 29.7125 42.7355V42.7355Z" fill="#1D3557"/>
<path d="M22.7896 67.7093C22.7658 67.7079 22.7479 67.7087 22.724 67.7072C22.4921 67.6922 22.2519 67.6733 22.0092 67.6502C21.7666 67.6272 21.5214 67.5999 21.2759 67.5671C21.0304 67.5342 20.7851 67.4963 20.5448 67.4521C20.3044 67.4079 20.0682 67.3572 19.841 67.3C19.6138 67.2428 19.3959 67.1791 19.1897 67.1074C19.0867 67.0715 18.9861 67.0334 18.8898 66.9935C18.7935 66.9537 18.7014 66.9116 18.6129 66.8677C18.5244 66.8237 18.4399 66.7781 18.3601 66.7298C18.2803 66.6814 18.2046 66.6305 18.1346 66.5776C18.0646 66.5247 18.0002 66.47 17.9409 66.4123C17.8816 66.3547 17.8275 66.2943 17.78 66.2317C17.7324 66.1691 17.6911 66.1036 17.6563 66.0358C17.6215 65.9681 17.5931 65.8977 17.572 65.8246C17.5509 65.7515 17.5368 65.6756 17.5304 65.5969C17.5241 65.5182 17.5254 65.4373 17.5348 65.3528C17.5442 65.2684 17.5481 65.1851 17.5457 65.1044C17.5434 65.0236 17.535 64.9451 17.5217 64.868C17.5083 64.7908 17.4895 64.7161 17.4658 64.6425C17.4422 64.5689 17.4136 64.497 17.3805 64.4269C17.3473 64.3567 17.3097 64.2878 17.2677 64.2211C17.2258 64.1544 17.1798 64.0896 17.1298 64.0263C17.0798 63.9629 17.0252 63.9014 16.9678 63.8413C16.9105 63.7812 16.8501 63.722 16.7861 63.6651C16.7222 63.6082 16.6556 63.5535 16.5858 63.4998C16.5161 63.4461 16.4429 63.3939 16.368 63.3433C16.337 63.3223 16.3014 63.3047 16.2695 63.2842C15.1403 65.7934 13.3401 67.3475 9.63996 68.0366C9.03398 68.1495 9.23398 68.8882 9.63996 68.8882C14.0088 68.8882 19.0347 68.8676 22.7896 67.7093Z" fill="#1D3557"/>
<path d="M22.6868 56.0921C19.9247 56.0921 17.6277 58.084 17.155 60.7099C16.9003 61.6605 16.6153 62.5159 16.2695 63.2842C16.3014 63.3047 16.337 63.3223 16.368 63.3433C16.4429 63.394 16.5161 63.4461 16.5859 63.4998C16.6556 63.5536 16.7222 63.6082 16.7861 63.6651C16.8501 63.722 16.9105 63.7812 16.9678 63.8413C17.0252 63.9014 17.0798 63.9629 17.1298 64.0263C17.1799 64.0897 17.2258 64.1544 17.2677 64.2211C17.3097 64.2878 17.3473 64.3568 17.3805 64.4269C17.4137 64.497 17.4422 64.5689 17.4659 64.6425C17.4895 64.7161 17.5083 64.7909 17.5217 64.868C17.535 64.9451 17.5434 65.0237 17.5458 65.1044C17.5481 65.1852 17.5442 65.2684 17.5348 65.3529C17.5254 65.4373 17.5241 65.5183 17.5304 65.597C17.5368 65.6756 17.5509 65.7515 17.572 65.8246C17.5931 65.8977 17.6215 65.9681 17.6563 66.0359C17.6911 66.1036 17.7324 66.1692 17.78 66.2318C17.8275 66.2944 17.8816 66.3547 17.9409 66.4124C18.0002 66.47 18.0646 66.5248 18.1346 66.5777C18.2046 66.6305 18.2803 66.6815 18.3601 66.7298C18.4399 66.7781 18.5244 66.8237 18.6129 66.8677C18.7015 66.9117 18.7935 66.9537 18.8898 66.9936C18.9861 67.0334 19.0867 67.0715 19.1897 67.1074C19.3959 67.1792 19.6138 67.2429 19.841 67.3C20.0682 67.3572 20.3044 67.408 20.5448 67.4522C20.7851 67.4964 21.0304 67.5343 21.2759 67.5671C21.5214 67.5999 21.7666 67.6272 22.0092 67.6503C22.2519 67.6734 22.4921 67.6923 22.724 67.7072C22.7479 67.7088 22.7658 67.7079 22.7896 67.7094C24.9556 67.0412 26.7003 65.9966 27.6483 64.3546C28.0682 63.5672 28.3061 62.6672 28.3061 61.7124C28.3061 58.6083 25.7909 56.092 22.6868 56.092V56.0921Z" fill="#1D3557"/>
</g>
<defs>
<clipPath id="clip0_302_237">
<rect width="68" height="68" fill="white" transform="translate(0 0.888184)"/>
</clipPath>
</defs>
</svg>
