<svg width="68" height="68" viewBox="0 0 68 68" fill="none" xmlns="http://www.w3.org/2000/svg">
<path d="M11.3335 43.3883H17.0002C18.5031 43.3883 19.9444 43.9853 21.0071 45.048C22.0698 46.1107 22.6668 47.552 22.6668 49.0549V54.7216H25.5002V49.0549C25.5002 47.552 26.0972 46.1107 27.1599 45.048C28.2226 43.9853 29.6639 43.3883 31.1668 43.3883H36.8335C38.3364 43.3883 39.7777 43.9853 40.8404 45.048C41.9031 46.1107 42.5002 47.552 42.5002 49.0549V54.7216H45.3335V49.0549C45.3335 47.552 45.9305 46.1107 46.9932 45.048C48.0559 43.9853 49.4973 43.3883 51.0002 43.3883H56.6668C58.1697 43.3883 59.6111 43.9853 60.6738 45.048C61.7365 46.1107 62.3335 47.552 62.3335 49.0549V54.7216H65.1668V63.2216H2.8335V54.7216H5.66683V49.0549C5.66683 47.552 6.26385 46.1107 7.32656 45.048C8.38926 43.9853 9.8306 43.3883 11.3335 43.3883ZM31.1668 20.7216L42.5002 29.2216L31.1668 37.7216V20.7216ZM11.3335 6.55493H56.6668C58.1697 6.55493 59.6111 7.15195 60.6738 8.21466C61.7365 9.27737 62.3335 10.7187 62.3335 12.2216V39.2516C60.6618 38.2599 58.7352 37.7216 56.6668 37.7216V12.2216H11.3335V37.7216C9.26516 37.7216 7.3385 38.2599 5.66683 39.2516V12.2216C5.66683 10.7187 6.26385 9.27737 7.32656 8.21466C8.38926 7.15195 9.8306 6.55493 11.3335 6.55493Z" fill="#1D3557"/>
</svg>
