 <svg width="420" height="260" viewBox="0 0 420 260" fill="none"
                            xmlns="http://www.w3.org/2000/svg">
                            <mask id="mask0_247_198" style="mask-type:alpha" maskUnits="userSpaceOnUse" x="0" y="0"
                                width="420" height="260">
                                <rect width="420" height="260" fill="#C4C4C4" />
                            </mask>
                            <g mask="url(#mask0_247_198)">
                                <g filter="url(#filter0_d_247_198)">
                                    <path
                                        d="M49.8973 106.774L28.1362 111.808C26.6837 114.338 26.7963 117.169 27.7321 118.887L49.2778 115.276C48.1826 111.956 48.5586 110.104 49.8973 106.774Z"
                                        fill="#C4C4C4" />
                                    <path
                                        d="M111.642 106.929C111.642 134.618 104.002 157.844 87.2399 160.489C86.1641 160.658 82.7861 160.489 81.6565 160.489C62.9262 160.489 41.5386 134.327 41.5386 104.861C41.5386 75.3953 56.7224 56.2648 75.4527 56.2648C76.5612 56.2648 82.4214 56.3258 83.5176 56.4716C100.944 58.7896 111.642 79.2071 111.642 106.929Z"
                                        fill="#D4D827" />
                                    <path
                                        d="M118.052 107.136C118.052 136.602 106.591 160.488 87.8603 160.488C69.1301 160.488 47.9492 134.534 47.9492 105.068C47.9492 75.602 63.1331 56.4714 81.8633 56.4714C100.594 56.4714 118.052 77.6699 118.052 107.136Z"
                                        fill="#EEF219" />
                                    <path
                                        d="M211.237 269.668C229.169 269.668 239.689 271.791 239.689 269.668C239.689 267.544 234.593 254.38 234.593 254.38L229.169 236.246L227.496 210.91C227.496 210.91 221.759 191.549 222.237 189.159C222.715 186.769 233.232 176.491 234.427 174.34C235.622 172.189 236.339 161.672 236.578 158.565C236.817 155.457 246.617 145.658 246.617 145.658L261.436 126.775L279.124 86.859C274.629 83.1829 270.229 83.3734 263.109 82.7957L242.076 105.741C242.076 105.741 225.583 135.141 224.627 136.575C223.671 138.009 219.847 136.814 218.174 138.487C216.501 140.16 203.355 158.565 203.355 158.565L185.189 168.125L174.911 185.335L167.502 199.437C163.439 201.349 132.605 155.935 131.649 154.262C130.693 152.589 132.366 149.482 130.215 145.179C128.064 140.877 116.591 124.146 116.591 124.146L112.289 111.239C108.147 110.177 105.555 110.046 100.099 111.239C101.161 143.035 104.198 158.142 111.333 165.257C118.467 172.372 122.566 182.466 123.283 183.422C124 184.379 134.517 192.983 136.19 195.134C137.864 197.286 141.927 212.344 141.927 212.344C141.927 212.344 146.946 235.529 146.946 238.397C146.946 241.265 155.073 247.24 157.224 256.562C159.375 265.884 166.225 269.668 166.225 269.668H187.033H211.237Z"
                                        fill="#FDE4CC" />
                                    <path
                                        d="M182.321 163.584L185.667 169.559L167.741 201.11L151.01 197.286C151.01 197.286 152.444 188.442 152.683 186.53C152.922 184.618 141.927 184.14 140.971 183.183C140.015 182.227 140.015 176.013 139.776 173.384C139.537 170.755 137.864 165.496 137.386 163.584C136.907 161.672 139.298 156.174 138.82 154.74C138.342 153.306 136.19 151.394 136.19 148.526C136.19 145.658 137.625 146.375 137.864 144.94C138.103 143.506 137.634 138.904 137.386 135.38C139.769 130.24 141.518 127.585 147.424 124.385C154.505 121.851 158.576 121.14 166.068 121.517C178.319 124.539 182.762 127.996 184.711 138.487C184.839 149.37 184.545 155.099 182.321 163.584Z"
                                        fill="#FDE4CC" />
                                    <path
                                        d="M142.644 137.292L136.668 135.619C135.273 132.291 145.03 124.364 148.38 122.712C151.73 121.059 164.127 119.093 169.653 121.039C178.257 122.999 180.207 124.737 184.472 134.185C186.038 149.634 185.102 157.701 182.799 165.257C181.305 162.952 178.426 147.27 177.062 146.853C175.718 146.441 170.296 150.789 170.594 151.372L170.609 151.394C171.071 151.879 173.698 169.657 173.477 173.384C173.256 177.111 158.635 186.51 157.463 186.052C152.903 186.866 149.336 186.052 148.38 186.052C147.424 186.052 141.3 185.725 138.58 182.466C138.573 178.918 140.493 176.491 140.493 176.491C140.493 176.491 145.929 178.014 148.38 178.403C151.995 177.078 157.43 176.109 159.006 174.123C162.04 169.042 162.56 170.577 164.527 167.329L170.609 151.394C170.603 151.388 170.598 151.38 170.594 151.372L162.482 139.921C163.339 137.179 163.623 135.563 161.287 131.556C150.094 133.391 145.641 134.608 142.644 137.292Z"
                                        fill="#391F1A" />
                                    <path
                                        d="M152.922 166.452C151.727 165.257 146.229 164.062 145.512 164.062C144.795 164.062 142.856 164.431 140.732 164.54V168.842C140.732 168.842 142.657 167.568 144.569 167.329C146.481 167.09 153.639 168.842 153.639 168.842C153.639 168.842 154.117 167.647 152.922 166.452Z"
                                        fill="#391F1A" />
                                    <path
                                        d="M100.576 109.566C100.576 121.753 94.9229 129.505 85.9823 129.505C77.0417 129.505 66.8608 117.814 66.8608 105.626C66.8608 93.4384 74.1086 85.5256 83.0492 85.5256C91.9898 85.5256 100.576 97.3782 100.576 109.566Z"
                                        fill="#B6B2B2" />
                                    <path
                                        d="M92.5396 107.402C92.5396 112.097 90.9931 116.036 87.5996 116.485C87.3818 116.513 86.698 116.485 86.4693 116.485C82.6775 116.485 78.3477 112.048 78.3477 107.051C78.3477 102.054 81.4215 98.8099 85.2134 98.8099C85.4378 98.8099 86.6241 98.8203 86.8461 98.845C90.374 99.2381 92.5396 102.701 92.5396 107.402Z"
                                        fill="#AFACAC" />
                                    <path
                                        d="M94.1231 107.36C94.1231 112.333 92.0069 116.364 88.5486 116.364C85.0904 116.364 81.1797 111.984 81.1797 107.011C81.1797 102.038 83.9831 98.8099 87.4414 98.8099C90.8996 98.8099 94.1231 102.387 94.1231 107.36Z"
                                        fill="#B6B2B2" />
                                    <path
                                        d="M274.343 68.2156C274.343 68.2156 88.3947 104.596 86.7132 104.785C85.0317 104.975 84.0106 108.723 85.2791 109.805C86.5477 110.887 272.431 77.0593 272.431 77.0593L274.343 68.2156Z"
                                        fill="#C4C4C4" />
                                    <path
                                        d="M255.46 73.235C255.699 74.1911 262.631 82.5567 263.348 83.0347C263.681 83.2569 266.576 82.9698 269.324 83.7518C272.489 84.6527 275.299 86.142 275.299 86.142C275.299 86.142 271.714 66.0645 270.519 65.1084C269.324 64.1523 265.499 66.5425 265.499 66.5425C265.499 66.5425 265.068 64.7598 264.304 64.3913C263.54 64.0227 257.851 67.2595 256.417 68.2156C254.982 69.1716 255.221 72.2789 255.46 73.235Z"
                                        fill="#FDE4CC" />
                                    <path
                                        d="M124.24 107.415L112.767 113.629H100.099L102.25 101.678L104.401 96.8978L114.201 93.5515L116.591 94.2686H119.937L123.283 97.6148C123.283 97.6148 120.415 98.3319 121.371 99.0489C122.327 99.766 123.233 100.568 123.761 100.961C124.614 101.596 124.718 103.351 124.718 103.351L124.24 107.415Z"
                                        fill="#FDE4CC" />
                                    <path
                                        d="M99.8594 113.39H113.244C113.244 113.39 114.679 116.736 114.918 118.171C115.157 119.605 117.547 126.058 117.547 126.058L101.054 128.448C101.054 128.448 100.815 123.907 100.337 120.083C99.8594 116.258 99.8594 113.39 99.8594 113.39Z"
                                        fill="#F2A03D" />
                                    <path
                                        d="M263.109 82.7957L279.84 85.6639C279.84 85.6639 276.767 92.622 276.05 93.8171C275.333 95.0122 273.899 100.032 273.899 100.032L253.548 93.3125C253.548 93.3125 255.929 90.4443 258.089 87.815C260.249 85.1858 263.109 82.7957 263.109 82.7957Z"
                                        fill="#F2A03D" />
                                    <path
                                        d="M350.59 63.6742C350.59 95.6777 341.76 122.523 322.386 125.58C321.142 125.776 317.238 125.58 315.932 125.58C294.283 125.58 269.562 95.3416 269.562 61.284C269.562 27.2264 287.113 5.11462 308.762 5.11462C310.043 5.11462 316.816 5.18511 318.083 5.35364C338.226 8.03285 350.59 31.6321 350.59 63.6742Z"
                                        fill="#D4D827" />
                                    <path
                                        d="M357.999 63.9133C357.999 97.9709 344.751 125.58 323.102 125.58C301.453 125.58 276.972 95.5807 276.972 61.5231C276.972 27.4655 294.522 5.35376 316.171 5.35376C337.82 5.35376 357.999 29.8557 357.999 63.9133Z"
                                        fill="#EEF219" />
                                    <path
                                        d="M336.009 67.1042C336.009 81.8088 330.318 91.1614 321.318 91.1614C312.318 91.1614 302.069 77.0554 302.069 62.3508C302.069 47.6461 309.365 38.0992 318.365 38.0992C327.366 38.0992 336.009 52.3996 336.009 67.1042Z"
                                        fill="#B6B2B2" />
                                    <path
                                        d="M401.023 41.9236L325.971 56.9818C322.15 61.954 324.086 67.0389 328.361 69.8888L403.413 57.4598C397.7 51.7585 398.041 48.308 401.023 41.9236Z"
                                        fill="#C4C4C4" />
                                    <path
                                        d="M406.998 49.8652C406.998 54.2214 405.6 57.7528 402.564 57.7528C399.528 57.7528 397.067 54.2214 397.067 49.8652C397.067 45.5089 398.333 41.7385 401.369 41.7385C404.405 41.7385 406.998 45.5089 406.998 49.8652Z"
                                        fill="#C4C4C4" />
                                </g>
                            </g>
                            <defs>
                                <filter id="filter0_d_247_198" x="26.5176" y="5.11462" width="402.163" height="307.881"
                                    filterUnits="userSpaceOnUse" color-interpolation-filters="sRGB">
                                    <feFlood flood-opacity="0" result="BackgroundImageFix" />
                                    <feColorMatrix in="SourceAlpha" type="matrix"
                                        values="0 0 0 0 0 0 0 0 0 0 0 0 0 0 0 0 0 0 127 0" result="hardAlpha" />
                                    <feOffset dx="3.34626" dy="3.34626" />
                                    <feGaussianBlur stdDeviation="0.956074" />
                                    <feComposite in2="hardAlpha" operator="out" />
                                    <feColorMatrix type="matrix" values="0 0 0 0 0 0 0 0 0 0 0 0 0 0 0 0 0 0 0.5 0" />
                                    <feBlend mode="normal" in2="BackgroundImageFix"
                                        result="effect1_dropShadow_247_198" />
                                    <feBlend mode="normal" in="SourceGraphic" in2="effect1_dropShadow_247_198"
                                        result="shape" />
                                </filter>
                            </defs>
                        </svg>
