<svg width="68" height="68" viewBox="0 0 68 68" fill="none" xmlns="http://www.w3.org/2000/svg">
<g clip-path="url(#clip0_302_244)">
<path fill-rule="evenodd" clip-rule="evenodd" d="M51.7439 34.9845L42.3529 32.0272L40.74 27.9934L40.455 30.0814L36.6989 27.6823L38.1635 25.9954L35.9785 20.5523L44.4651 27.1635L44.8872 30.547L51.7439 34.9845ZM5.30039 30.5346L5.16811 30.6667L4.86524 30.4981L5.30039 30.5346ZM54.5341 42.2698C50.003 41.9073 45.3831 40.5015 40.579 37.7992C36.1384 35.3012 31.4202 33.5079 26.5815 32.4195L30.8668 29.4081L26.4736 22.602L29.4437 19.0135L27.5873 14.5585L19.1726 18.5184L27.6802 10.3821L56.162 34.1425L55.7503 36.1981L57.0776 35.8514L55.5662 37.1167L55.1225 39.3318L54.9128 40.3794L56.4822 39.8423L54.6492 41.6949L54.5341 42.2698ZM59.1073 41.9831L57.5959 41.1417L59.248 41.2802L59.1073 41.9831ZM-4.23218 36.581C30.1297 27.9901 30.504 58.0877 56.7795 51.5187C31.4159 63.2708 28.5684 32.8218 -4.23218 36.581ZM68.1758 32.9669L46.0255 12.8262L39.8381 18.3947L27.8349 7.99995L10.7744 25.0606L10.7118 24.7484L9.03322 24.1027L10.5853 24.1875L10.1408 21.8975L9.03322 21.4923H10.0596L9.03322 16.3684L8.23512 20.3537L9.03322 20.1427L8.16747 20.6914L7.70599 22.9951L9.03322 22.6485L7.52204 23.9138L7.07821 26.1288L6.86835 27.1764L8.43795 26.6393L6.60488 28.4924L6.43374 29.3465L6.30188 28.688L6.02532 27.3077L4.34672 26.6619L5.89883 26.7469L5.45431 24.4569L4.34672 24.0517H5.37301L4.34672 18.9278L3.54848 22.9131L4.34672 22.7021L3.48082 23.2508L3.01949 25.5545L4.34672 25.208L2.8354 26.473L2.3917 28.688L2.18184 29.7358L3.75145 29.1987L1.91824 31.0516L1.52718 33.0039C1.30795 33.0641 1.089 33.1266 0.87032 33.1896L-1.05948 32.1152L0.770282 32.2686L0.377156 30.3052L0.100466 28.9248L-1.578 28.2791L-0.0260281 28.3639L-0.470414 26.0739L-1.578 25.6687H-0.551574L-1.578 20.545L-2.37624 24.5302L-1.578 24.3191L-2.44376 24.868L-2.90523 27.1716L-1.578 26.8249L-3.08932 28.0901L-3.53288 30.3052L-3.74274 31.353L-2.17327 30.8157L-4.00634 32.6689L-4.48572 35.0615C-6.4074 35.8536 -8.29297 36.7654 -10.1309 37.7992C-1.45454 35.0724 5.93286 33.4653 13.0918 33.7785L13.2624 32.9263L14.179 31.9998L13.3941 32.2682L13.4991 31.7444L13.721 30.637L14.4766 30.0044L13.813 30.1776L14.0437 29.0259L14.4766 28.7513L14.0776 28.857L14.4766 26.8643L14.9898 29.4262H14.4766L15.0304 29.6289L15.2527 30.7738L14.4766 30.7315L15.3158 31.0542L15.4541 31.7444L15.6508 32.7262L14.7358 32.6495L15.7483 33.2132L15.9065 34.0031C16.5914 34.0829 17.2752 34.1821 17.9591 34.3004L19.7919 32.4479L18.2226 32.9847L18.4323 31.9371L18.876 29.722L20.3873 28.457L19.0599 28.8035L19.5214 26.4999L20.3873 25.9512L19.5891 26.1621L20.3873 22.1769L21.4136 27.3007H20.3873L21.4949 27.706L21.9393 29.996L20.3873 29.9111L22.0658 30.5566L22.3422 31.9371L22.7356 33.9006L20.9055 33.7471L22.9307 34.8746L23.0661 35.5504C27.4494 36.9423 31.9317 39.1887 36.755 42.475C49.2286 50.9745 68.9829 47.7579 78.3037 35.7841C74.3118 38.0299 70.3822 39.8092 66.4495 40.9486L66.3812 40.6077L65.3686 40.044L66.2838 40.1206L66.0869 39.139L65.9487 38.4489L65.1095 38.1259L65.8856 38.1685L65.6632 37.0232L65.1095 36.8205H65.6228L65.1095 34.2588L64.7103 36.2515L65.1095 36.1458L64.6766 36.42L64.4459 37.5724L65.1095 37.3989L64.3537 38.0315L64.132 39.139L64.0271 39.6626L64.8119 39.3942L63.8951 40.3207L63.6284 41.6533H63.6297C63.5493 41.6703 63.4685 41.6867 63.388 41.7032L63.2957 41.2412L61.6877 40.3457L63.1407 40.4675L62.8283 38.9085L62.6088 37.8122L61.2758 37.2995L62.5084 37.3668L62.1553 35.5481L61.2758 35.2262H62.0907L61.2758 31.1574L60.642 34.3223L61.2758 34.1547L60.5881 34.5904L60.2218 36.4198L61.2758 36.1446L60.0758 37.1493L59.7233 38.9085L59.5568 39.7403L60.8033 39.3139L59.3474 40.7852L59.3354 40.8442L59.0327 39.3318L58.756 37.9514L57.0776 37.3056L58.6296 37.3905L58.1851 35.1007L57.0776 34.6954H58.1039L57.0776 29.5714L56.2794 33.5567L57.0776 33.3455L56.2116 33.8943L56.1667 34.1181L48.7927 27.1367L58.4622 28.2944L49.4907 23.2208L50.0165 25.4172L45.1596 21.179L42.6804 21.3501L41.3233 20.0652L49.243 21.1171L48.6243 17.6523L68.1758 32.9669Z" fill="#1D3557"/>
</g>
<defs>
<clipPath id="clip0_302_244">
<rect width="68" height="68" fill="white" transform="translate(0 0.888184)"/>
</clipPath>
</defs>
</svg>
