<svg width="68" height="68" viewBox="0 0 68 68" fill="none" xmlns="http://www.w3.org/2000/svg">
<path d="M15.3159 14.0005C15.1953 13.9987 15.0727 14.0018 14.9516 14.0048C13.9826 14.0295 13.0002 14.2027 12.0809 14.4149C11.2198 14.6137 10.2949 14.9454 9.70882 15.6105C8.79042 16.6527 8.31248 19.542 8.31248 19.542C8.31248 19.542 5.6226 21.3515 4.68283 22.6357C3.79889 23.8437 3.33483 25.3312 2.93523 26.7764C2.67065 27.7333 2.60821 28.7369 2.51892 29.7261C1.92927 36.2586 1.24853 42.2044 1.75137 49.3917C1.93082 51.9567 3.04157 53.2146 4.54409 54.3788C5.93455 55.4564 7.90195 55.9629 9.63939 55.714C11.0032 55.5187 12.2176 54.5697 13.1867 53.5847C15.2077 51.5307 17.1087 46.4441 17.5277 46.0929C17.9464 45.7417 18.5034 44.8973 18.5034 44.8973C18.5034 44.8973 19.8441 46.1166 20.6673 46.4419C21.825 46.8995 23.1336 47.1022 24.3663 46.935C25.968 46.7178 27.6051 46.0943 28.8329 45.037C29.7061 44.2851 30.6499 42.0873 30.6499 42.0873H37.3496C37.3496 42.0873 38.2935 44.285 39.1666 45.037C40.3945 46.0943 42.0315 46.7178 43.6332 46.935C44.8659 47.1021 46.1744 46.8995 47.3323 46.4419C48.1555 46.1166 49.4962 44.8973 49.4962 44.8973C49.4962 44.8973 50.0531 45.7417 50.4719 46.0929C50.8907 46.444 52.7873 51.5307 54.8082 53.5847C55.7774 54.5698 56.996 55.5187 58.3599 55.714C60.0974 55.9629 62.0648 55.4564 63.4552 54.3788C64.9577 53.2145 66.0683 51.9565 66.2479 49.3917C66.7507 42.2044 66.07 36.2586 65.4803 29.7261C65.391 28.7369 65.3243 27.7334 65.0597 26.7764C64.6601 25.3312 64.2004 23.8435 63.3164 22.6357C62.3768 21.3516 59.6868 19.542 59.6868 19.542C59.6868 19.542 59.2044 16.6529 58.2861 15.6105C57.7 14.9454 56.7794 14.6137 55.9184 14.4149C54.0797 13.9905 51.9858 13.7246 50.2592 14.4891C49.2661 14.9288 48.5886 16.0331 48.0302 16.8759C47.4719 17.7186 47.1933 20.3883 47.1933 20.3883L37.4883 20.349V20.3185L34.0018 20.3316L30.511 20.3185V20.349L20.806 20.3883C20.806 20.3883 20.5274 17.7185 19.969 16.8759C19.4106 16.0331 18.7331 14.9288 17.7401 14.4891C16.9847 14.1546 16.16 14.0133 15.316 14.0004L15.3159 14.0005ZM54.7053 21.0125C56.0176 21.0125 57.0817 22.0832 57.0817 23.4036C57.0817 24.724 56.0176 25.7947 54.7053 25.7947C53.393 25.7947 52.3289 24.724 52.3289 23.4036C52.3289 22.0831 53.393 21.0125 54.7053 21.0125ZM11.3111 22.3651H15.1358V25.2274C15.1358 25.2274 13.7496 27.0646 13.2234 27.0425C12.6647 27.0191 11.311 25.2274 11.311 25.2274L11.3111 22.3651ZM48.94 26.0914C50.2523 26.0914 51.3164 27.1621 51.3164 28.4825C51.3164 29.8029 50.2523 30.8736 48.94 30.8736C47.6277 30.8736 46.5636 29.8029 46.5636 28.4825C46.5636 27.1621 47.6277 26.0914 48.94 26.0914ZM60.4751 26.0914C61.7874 26.0914 62.8515 27.1621 62.8515 28.4825C62.8515 29.8029 61.7874 30.8736 60.4751 30.8736C59.1628 30.8736 58.0987 29.8029 58.0987 28.4825C58.0987 27.1621 59.1628 26.0914 60.4751 26.0914ZM7.5692 26.2659H10.4139C10.4139 26.2659 12.1945 27.6324 12.2178 28.1945C12.2398 28.724 10.4139 30.1188 10.4139 30.1188H7.5692V26.2659ZM16.034 26.2659H18.8786V30.1187H16.034C16.034 30.1187 14.2081 28.7239 14.23 28.1944C14.2533 27.6323 16.034 26.2658 16.034 26.2658V26.2659ZM38.5037 27.2913L42.224 28.5174L38.5037 29.7479V27.2913ZM25.4976 27.3776H29.2042V29.6615H25.4976V27.3776ZM13.2241 29.3464C13.7502 29.3243 15.1364 31.1616 15.1364 31.1616V34.0239H11.3117V31.1616C11.3117 31.1616 12.6655 29.3699 13.2241 29.3464H13.2241ZM54.7058 31.1747C56.0181 31.1747 57.0822 32.2454 57.0822 33.5658C57.0822 34.8862 56.0181 35.9569 54.7058 35.9569C53.3935 35.9569 52.3294 34.8862 52.3294 33.5658C52.3294 32.2453 53.3935 31.1747 54.7058 31.1747ZM23.3817 35.3547C25.9452 35.3547 28.0218 37.444 28.0218 40.0235C28.0218 42.603 25.9453 44.6967 23.3817 44.6967C20.8181 44.6967 18.7416 42.6029 18.7416 40.0235C18.7416 37.4441 20.8181 35.3547 23.3817 35.3547ZM44.3356 35.3547C46.8991 35.3547 48.9757 37.444 48.9757 40.0235C48.9757 42.603 46.8992 44.6967 44.3356 44.6967C41.772 44.6967 39.6955 42.6029 39.6955 40.0235C39.6955 37.4441 41.772 35.3547 44.3356 35.3547Z" fill="#1D3557"/>
</svg>
